<svg width="256" height="256" viewBox="0 0 256 256" fill="none" xmlns="http://www.w3.org/2000/svg">
<rect width="256" height="256" fill="#007FFF"/>
<path d="M198 108C204.627 108 210 102.627 210 96C210 89.3726 204.627 84 198 84C191.373 84 186 89.3726 186 96C186 102.627 191.373 108 198 108Z" fill="#FFD700"/>
<path d="M180 88C180 82.4772 175.523 78 170 78C164.477 78 160 82.4772 160 88C160 93.5228 164.477 98 170 98C175.523 98 180 93.5228 180 88Z" fill="#FFD700"/>
<path d="M224 96C224 87.1634 216.837 80 208 80C199.163 80 192 87.1634 192 96C192 104.837 199.163 112 208 112C216.837 112 224 104.837 224 96Z" fill="#FFD700"/>
<path d="M214 115C214 108.373 208.627 103 202 103C195.373 103 190 108.373 190 115C190 121.627 195.373 127 202 127C208.627 127 214 121.627 214 115Z" fill="#FFD700"/>
<path d="M178 106C185.732 106 192 99.732 192 92C192 84.268 185.732 78 178 78C170.268 78 164 84.268 164 92C164 99.732 170.268 106 178 106Z" fill="#FFD700"/>
<path d="M216 90C220.418 90 224 86.4183 224 82C224 77.5817 220.418 74 216 74C211.582 74 208 77.5817 208 82C208 86.4183 211.582 90 216 90Z" fill="#FFD700"/>
<path d="M188 115C195.18 115 201 109.18 201 102C201 94.8203 195.18 89 188 89C180.82 89 175 94.8203 175 102C175 109.18 180.82 115 188 115Z" fill="#FFD700"/>
<circle cx="200" cy="100" r="30" fill="#FFD700"/>
<path d="M71.6667 188C35.6667 188 34.6667 131 73.6667 130C88.6667 92 153.667 91 172.667 130C222.667 131 222.667 188 186.667 188H71.6667Z" fill="#FFFFFF" fill-opacity="0.9"/>
</svg>